{
  "accessors": [
    {
      "bufferView": 2,
      "componentType": 5126,
      "count": 2827,
      "max": [
        1.0217864513397217,
        2.255981922149658,
        1.1832808256149292
      ],
      "min": [
        -1.0217864513397217,
        -2.4275004863739014,
        0.18357399106025696
      ],
      "type": "VEC3"
    },
    {
      "bufferView": 2,
      "byteOffset": 33924,
      "componentType": 5126,
      "count": 2827,
      "max": [
        1.0,
        1.0,
        1.0
      ],
      "min": [
        -1.0,
        -1.0,
        -1.0
      ],
      "type": "VEC3"
    },
    {
      "bufferView": 3,
      "componentType": 5126,
      "count": 2827,
      "max": [
        1.0,
        1.0,
        1.0,
        1.0
      ],
      "min": [
        -1.0,
        -1.0,
        -1.0,
        1.0
      ],
      "type": "VEC4"
    },
    {
      "bufferView": 1,
      "componentType": 5126,
      "count": 2827,
      "max": [
        1.0,
        0.989882230758667
      ],
      "min": [
        0.0,
        0.0
      ],
      "type": "VEC2"
    },
    {
      "bufferView": 1,
      "byteOffset": 22616,
      "componentType": 5126,
      "count": 2827,
      "max": [
        1.0,
        0.989882230758667
      ],
      "min": [
        0.0,
        0.0
      ],
      "type": "VEC2"
    },
    {
      "bufferView": 1,
      "byteOffset": 45232,
      "componentType": 5126,
      "count": 2827,
      "max": [
        1.0,
        0.989882230758667
      ],
      "min": [
        0.0,
        0.0
      ],
      "type": "VEC2"
    },
    {
      "bufferView": 1,
      "byteOffset": 67848,
      "componentType": 5126,
      "count": 2827,
      "max": [
        1.0,
        0.989882230758667
      ],
      "min": [
        0.0,
        0.0
      ],
      "type": "VEC2"
    },
    {
      "bufferView": 0,
      "componentType": 5125,
      "count": 9318,
      "type": "SCALAR"
    },
    {
      "bufferView": 2,
      "byteOffset": 67848,
      "componentType": 5126,
      "count": 503,
      "max": [
        0.8626585602760315,
        1.354788064956665,
        1.1429237127304077
      ],
      "min": [
        -0.8626585602760315,
        -2.299103021621704,
        0.27015650272369385
      ],
      "type": "VEC3"
    },
    {
      "bufferView": 2,
      "byteOffset": 73884,
      "componentType": 5126,
      "count": 503,
      "max": [
        0.999695897102356,
        0.9504381418228149,
        0.96550452709198
      ],
      "min": [
        -0.999695897102356,
        -0.9652841091156006,
        -0.9655064344406128
      ],
      "type": "VEC3"
    },
    {
      "bufferView": 3,
      "byteOffset": 45232,
      "componentType": 5126,
      "count": 503,
      "max": [
        0.9999507069587708,
        0.9538379311561584,
        0.950364887714386,
        1.0
      ],
      "min": [
        -0.9999409317970276,
        -0.9655064940452576,
        -0.9827820062637329,
        1.0
      ],
      "type": "VEC4"
    },
    {
      "bufferView": 1,
      "byteOffset": 90464,
      "componentType": 5126,
      "count": 503,
      "max": [
        0.9987038373947144,
        1.0000001192092896
      ],
      "min": [
        0.0,
        0.0
      ],
      "type": "VEC2"
    },
    {
      "bufferView": 1,
      "byteOffset": 94488,
      "componentType": 5126,
      "count": 503,
      "max": [
        0.9987038373947144,
        1.0000001192092896
      ],
      "min": [
        0.0,
        0.0
      ],
      "type": "VEC2"
    },
    {
      "bufferView": 1,
      "byteOffset": 98512,
      "componentType": 5126,
      "count": 503,
      "max": [
        0.9987038373947144,
        1.0000001192092896
      ],
      "min": [
        0.0,
        0.0
      ],
      "type": "VEC2"
    },
    {
      "bufferView": 1,
      "byteOffset": 102536,
      "componentType": 5126,
      "count": 503,
      "max": [
        0.9987038373947144,
        1.0000001192092896
      ],
      "min": [
        0.0,
        0.0
      ],
      "type": "VEC2"
    },
    {
      "bufferView": 0,
      "byteOffset": 37272,
      "componentType": 5125,
      "count": 1212,
      "type": "SCALAR"
    },
    {
      "bufferView": 2,
      "byteOffset": 79920,
      "componentType": 5126,
      "count": 2617,
      "max": [
        1.0423471927642822,
        2.3020617961883545,
        1.106343388557434
      ],
      "min": [
        -1.0423471927642822,
        -2.3719143867492676,
        0.10411220788955688
      ],
      "type": "VEC3"
    },
    {
      "bufferView": 2,
      "byteOffset": 111324,
      "componentType": 5126,
      "count": 2617,
      "max": [
        1.0,
        1.0,
        1.0
      ],
      "min": [
        -1.0,
        -1.0,
        -1.0
      ],
      "type": "VEC3"
    },
    {
      "bufferView": 3,
      "byteOffset": 53280,
      "componentType": 5126,
      "count": 2617,
      "max": [
        1.0,
        1.0,
        1.0,
        1.0
      ],
      "min": [
        -1.0,
        -1.0,
        -1.0,
        1.0
      ],
      "type": "VEC4"
    },
    {
      "bufferView": 1,
      "byteOffset": 106560,
      "componentType": 5126,
      "count": 2617,
      "max": [
        1.0,
        0.9996883869171143
      ],
      "min": [
        0.0,
        0.0
      ],
      "type": "VEC2"
    },
    {
      "bufferView": 1,
      "byteOffset": 127496,
      "componentType": 5126,
      "count": 2617,
      "max": [
        1.0,
        0.9996883869171143
      ],
      "min": [
        0.0,
        0.0
      ],
      "type": "VEC2"
    },
    {
      "bufferView": 1,
      "byteOffset": 148432,
      "componentType": 5126,
      "count": 2617,
      "max": [
        1.0,
        0.9996883869171143
      ],
      "min": [
        0.0,
        0.0
      ],
      "type": "VEC2"
    },
    {
      "bufferView": 1,
      "byteOffset": 169368,
      "componentType": 5126,
      "count": 2617,
      "max": [
        1.0,
        0.9996883869171143
      ],
      "min": [
        0.0,
        0.0
      ],
      "type": "VEC2"
    },
    {
      "bufferView": 0,
      "byteOffset": 42120,
      "componentType": 5125,
      "count": 7485,
      "type": "SCALAR"
    },
    {
      "bufferView": 2,
      "byteOffset": 142728,
      "componentType": 5126,
      "count": 556,
      "max": [
        0.8289176225662231,
        1.338869571685791,
        0.6008706092834473
      ],
      "min": [
        -0.8264234066009521,
        -1.2801822423934937,
        0.21085721254348755
      ],
      "type": "VEC3"
    },
    {
      "bufferView": 2,
      "byteOffset": 149400,
      "componentType": 5126,
      "count": 556,
      "max": [
        1.0,
        1.0,
        0.9964776039123535
      ],
      "min": [
        -1.0,
        -1.0,
        -0.9964777231216431
      ],
      "type": "VEC3"
    },
    {
      "bufferView": 3,
      "byteOffset": 95152,
      "componentType": 5126,
      "count": 556,
      "max": [
        1.0,
        1.0,
        0.9999791979789734,
        1.0
      ],
      "min": [
        -1.0,
        -1.0,
        -0.9999791979789734,
        1.0
      ],
      "type": "VEC4"
    },
    {
      "bufferView": 1,
      "byteOffset": 190304,
      "componentType": 5126,
      "count": 556,
      "max": [
        0.8357549905776978,
        0.9997689723968506
      ],
      "min": [
        0.00023099999816622585,
        0.00023099999816622585
      ],
      "type": "VEC2"
    },
    {
      "bufferView": 1,
      "byteOffset": 194752,
      "componentType": 5126,
      "count": 556,
      "max": [
        0.8357549905776978,
        0.9997689723968506
      ],
      "min": [
        0.00023099999816622585,
        0.00023099999816622585
      ],
      "type": "VEC2"
    },
    {
      "bufferView": 1,
      "byteOffset": 199200,
      "componentType": 5126,
      "count": 556,
      "max": [
        0.8357549905776978,
        0.9997689723968506
      ],
      "min": [
        0.00023099999816622585,
        0.00023099999816622585
      ],
      "type": "VEC2"
    },
    {
      "bufferView": 1,
      "byteOffset": 203648,
      "componentType": 5126,
      "count": 556,
      "max": [
        0.8357549905776978,
        0.9997689723968506
      ],
      "min": [
        0.00023099999816622585,
        0.00023099999816622585
      ],
      "type": "VEC2"
    },
    {
      "bufferView": 0,
      "byteOffset": 72060,
      "componentType": 5125,
      "count": 1248,
      "type": "SCALAR"
    },
    {
      "bufferView": 2,
      "byteOffset": 156072,
      "componentType": 5126,
      "count": 5952,
      "max": [
        0.9881094694137573,
        1.8489664793014526,
        0.7973037362098694
      ],
      "min": [
        -0.9856151342391968,
        -1.7711490392684937,
        0.016753584146499634
      ],
      "type": "VEC3"
    },
    {
      "bufferView": 2,
      "byteOffset": 227496,
      "componentType": 5126,
      "count": 5952,
      "max": [
        1.0,
        1.0,
        0.9999902248382568
      ],
      "min": [
        -1.0,
        -1.0,
        -0.9999902248382568
      ],
      "type": "VEC3"
    },
    {
      "bufferView": 3,
      "byteOffset": 104048,
      "componentType": 5126,
      "count": 5952,
      "max": [
        0.9999724626541138,
        0.9986585378646851,
        0.9999940991401672,
        1.0
      ],
      "min": [
        -0.9999724626541138,
        -0.9991608262062073,
        -0.9999940991401672,
        1.0
      ],
      "type": "VEC4"
    },
    {
      "bufferView": 1,
      "byteOffset": 208096,
      "componentType": 5126,
      "count": 5952,
      "max": [
        0.9646494388580322,
        1.0
      ],
      "min": [
        0.0,
        0.0
      ],
      "type": "VEC2"
    },
    {
      "bufferView": 1,
      "byteOffset": 255712,
      "componentType": 5126,
      "count": 5952,
      "max": [
        0.9646494388580322,
        1.0
      ],
      "min": [
        0.0,
        0.0
      ],
      "type": "VEC2"
    },
    {
      "bufferView": 1,
      "byteOffset": 303328,
      "componentType": 5126,
      "count": 5952,
      "max": [
        0.9646494388580322,
        1.0
      ],
      "min": [
        0.0,
        0.0
      ],
      "type": "VEC2"
    },
    {
      "bufferView": 1,
      "byteOffset": 350944,
      "componentType": 5126,
      "count": 5952,
      "max": [
        0.9646494388580322,
        1.0
      ],
      "min": [
        0.0,
        0.0
      ],
      "type": "VEC2"
    },
    {
      "bufferView": 0,
      "byteOffset": 77052,
      "componentType": 5125,
      "count": 19224,
      "type": "SCALAR"
    }
  ],
  "asset": {
    "extras": {
      "author": "Ajay Gawde (https://sketchfab.com/aagawde)",
      "license": "CC-BY-4.0 (http://creativecommons.org/licenses/by/4.0/)",
      "source": "https://sketchfab.com/3d-models/ford-gt-2006-low-poly-43b192a06d504c5c9f5a9066304298bd",
      "title": "Ford GT 2006 - Low Poly"
    },
    "generator": "Sketchfab-14.78.0",
    "version": "2.0"
  },
  "bufferViews": [
    {
      "buffer": 0,
      "byteLength": 153948,
      "name": "floatBufferViews",
      "target": 34963
    },
    {
      "buffer": 0,
      "byteLength": 398560,
      "byteOffset": 153948,
      "byteStride": 8,
      "name": "floatBufferViews",
      "target": 34962
    },
    {
      "buffer": 0,
      "byteLength": 298920,
      "byteOffset": 552508,
      "byteStride": 12,
      "name": "floatBufferViews",
      "target": 34962
    },
    {
      "buffer": 0,
      "byteLength": 199280,
      "byteOffset": 851428,
      "byteStride": 16,
      "name": "floatBufferViews",
      "target": 34962
    }
  ],
  "buffers": [
    {
      "byteLength": 1050708,
      "uri": "gltf.bin"
    }
  ],
  "extensionsUsed": [
    "KHR_materials_clearcoat"
  ],
  "images": [
    {
      "uri": "textures/Body_baseColor.png"
    },
    {
      "uri": "textures/Body_metallicRoughness.png"
    },
    {
      "uri": "textures/Body_emissive.png"
    },
    {
      "uri": "textures/Body_normal.png"
    },
    {
      "uri": "textures/Glass_baseColor.png"
    },
    {
      "uri": "textures/Glass_metallicRoughness.png"
    },
    {
      "uri": "textures/Glass_normal.png"
    },
    {
      "uri": "textures/Details_baseColor.png"
    },
    {
      "uri": "textures/Details_metallicRoughness.png"
    },
    {
      "uri": "textures/Details_emissive.png"
    },
    {
      "uri": "textures/Details_normal.png"
    },
    {
      "uri": "textures/Caliper_baseColor.png"
    },
    {
      "uri": "textures/Caliper_metallicRoughness.png"
    },
    {
      "uri": "textures/Caliper_emissive.png"
    },
    {
      "uri": "textures/Caliper_normal.png"
    },
    {
      "uri": "textures/wheels_baseColor.png"
    },
    {
      "uri": "textures/wheels_metallicRoughness.png"
    },
    {
      "uri": "textures/wheels_emissive.png"
    },
    {
      "uri": "textures/wheels_normal.png"
    }
  ],
  "materials": [
    {
      "doubleSided": true,
      "emissiveFactor": [
        1.0,
        1.0,
        1.0
      ],
      "emissiveTexture": {
        "index": 2
      },
      "name": "Body",
      "normalTexture": {
        "index": 3
      },
      "pbrMetallicRoughness": {
        "baseColorTexture": {
          "index": 0
        },
        "metallicRoughnessTexture": {
          "index": 1
        }
      }
    },
    {
      "alphaMode": "BLEND",
      "doubleSided": true,
      "extensions": {
        "KHR_materials_clearcoat": {
          "clearcoatFactor": 1.0,
          "clearcoatRoughnessFactor": 0.04
        }
      },
      "name": "Glass",
      "normalTexture": {
        "index": 6
      },
      "pbrMetallicRoughness": {
        "baseColorFactor": [
          1.0,
          1.0,
          1.0,
          0.4739062061903426
        ],
        "baseColorTexture": {
          "index": 4
        },
        "metallicRoughnessTexture": {
          "index": 5
        }
      }
    },
    {
      "doubleSided": true,
      "emissiveFactor": [
        1.0,
        1.0,
        1.0
      ],
      "emissiveTexture": {
        "index": 9
      },
      "name": "Details",
      "normalTexture": {
        "index": 10
      },
      "pbrMetallicRoughness": {
        "baseColorTexture": {
          "index": 7
        },
        "metallicRoughnessTexture": {
          "index": 8
        }
      }
    },
    {
      "doubleSided": true,
      "emissiveFactor": [
        1.0,
        1.0,
        1.0
      ],
      "emissiveTexture": {
        "index": 13
      },
      "name": "Caliper",
      "normalTexture": {
        "index": 14
      },
      "pbrMetallicRoughness": {
        "baseColorTexture": {
          "index": 11
        },
        "metallicRoughnessTexture": {
          "index": 12
        }
      }
    },
    {
      "doubleSided": true,
      "emissiveFactor": [
        1.0,
        1.0,
        1.0
      ],
      "emissiveTexture": {
        "index": 17
      },
      "name": "wheels",
      "normalTexture": {
        "index": 18
      },
      "pbrMetallicRoughness": {
        "baseColorTexture": {
          "index": 15
        },
        "metallicRoughnessTexture": {
          "index": 16
        }
      }
    }
  ],
  "meshes": [
    {
      "name": "Body_Body_0",
      "primitives": [
        {
          "attributes": {
            "NORMAL": 1,
            "POSITION": 0,
            "TANGENT": 2,
            "TEXCOORD_0": 3,
            "TEXCOORD_1": 4,
            "TEXCOORD_2": 5,
            "TEXCOORD_3": 6
          },
          "indices": 7,
          "material": 0,
          "mode": 4
        }
      ]
    },
    {
      "name": "Glass_Glass_0",
      "primitives": [
        {
          "attributes": {
            "NORMAL": 9,
            "POSITION": 8,
            "TANGENT": 10,
            "TEXCOORD_0": 11,
            "TEXCOORD_1": 12,
            "TEXCOORD_2": 13,
            "TEXCOORD_3": 14
          },
          "indices": 15,
          "material": 1,
          "mode": 4
        }
      ]
    },
    {
      "name": "Deatils_Details_0",
      "primitives": [
        {
          "attributes": {
            "NORMAL": 17,
            "POSITION": 16,
            "TANGENT": 18,
            "TEXCOORD_0": 19,
            "TEXCOORD_1": 20,
            "TEXCOORD_2": 21,
            "TEXCOORD_3": 22
          },
          "indices": 23,
          "material": 2,
          "mode": 4
        }
      ]
    },
    {
      "name": "Caliper_Caliper_0",
      "primitives": [
        {
          "attributes": {
            "NORMAL": 25,
            "POSITION": 24,
            "TANGENT": 26,
            "TEXCOORD_0": 27,
            "TEXCOORD_1": 28,
            "TEXCOORD_2": 29,
            "TEXCOORD_3": 30
          },
          "indices": 31,
          "material": 3,
          "mode": 4
        }
      ]
    },
    {
      "name": "Wheel_wheels_0",
      "primitives": [
        {
          "attributes": {
            "NORMAL": 33,
            "POSITION": 32,
            "TANGENT": 34,
            "TEXCOORD_0": 35,
            "TEXCOORD_1": 36,
            "TEXCOORD_2": 37,
            "TEXCOORD_3": 38
          },
          "indices": 39,
          "material": 4,
          "mode": 4
        }
      ]
    }
  ],
  "nodes": [
    {
      "children": [
        1
      ],
      "matrix": [
        1.0,
        0.0,
        0.0,
        0.0,
        0.0,
        2.220446049250313e-16,
        -1.0,
        0.0,
        0.0,
        1.0,
        2.220446049250313e-16,
        0.0,
        0.0,
        0.0,
        0.0,
        1.0
      ],
      "name": "Sketchfab_model"
    },
    {
      "children": [
        2
      ],
      "matrix": [
        0.009999999776482582,
        0.0,
        0.0,
        0.0,
        0.0,
        0.0,
        0.009999999776482582,
        0.0,
        0.0,
        -0.009999999776482582,
        0.0,
        0.0,
        0.0,
        0.0,
        0.0,
        1.0
      ],
      "name": "Ford GT (2006).fbx"
    },
    {
      "children": [
        3,
        5,
        7,
        9,
        11
      ],
      "name": "RootNode"
    },
    {
      "children": [
        4
      ],
      "matrix": [
        100.0,
        0.0,
        0.0,
        0.0,
        0.0,
        -1.629206793918314e-05,
        -99.99999999999868,
        0.0,
        0.0,
        99.99999999999868,
        -1.629206793918314e-05,
        0.0,
        0.0,
        0.0,
        0.0,
        1.0
      ],
      "name": "Body"
    },
    {
      "mesh": 0,
      "name": "Body_Body_0"
    },
    {
      "children": [
        6
      ],
      "matrix": [
        100.0,
        0.0,
        0.0,
        0.0,
        0.0,
        -1.629206793918314e-05,
        -99.99999999999868,
        0.0,
        0.0,
        99.99999999999868,
        -1.629206793918314e-05,
        0.0,
        0.0,
        0.0,
        0.0,
        1.0
      ],
      "name": "Glass"
    },
    {
      "mesh": 1,
      "name": "Glass_Glass_0"
    },
    {
      "children": [
        8
      ],
      "matrix": [
        100.0,
        0.0,
        0.0,
        0.0,
        0.0,
        -1.629206793918314e-05,
        -99.99999999999868,
        0.0,
        0.0,
        99.99999999999868,
        -1.629206793918314e-05,
        0.0,
        0.0,
        0.0,
        0.0,
        1.0
      ],
      "name": "Deatils"
    },
    {
      "mesh": 2,
      "name": "Deatils_Details_0"
    },
    {
      "children": [
        10
      ],
      "matrix": [
        100.0,
        0.0,
        0.0,
        0.0,
        0.0,
        -1.629206793918314e-05,
        -99.99999999999868,
        0.0,
        0.0,
        99.99999999999868,
        -1.629206793918314e-05,
        0.0,
        0.0,
        0.0,
        0.0,
        1.0
      ],
      "name": "Caliper"
    },
    {
      "mesh": 3,
      "name": "Caliper_Caliper_0"
    },
    {
      "children": [
        12
      ],
      "matrix": [
        100.0,
        0.0,
        0.0,
        0.0,
        0.0,
        -1.629206793918314e-05,
        -99.99999999999868,
        0.0,
        0.0,
        99.99999999999868,
        -1.629206793918314e-05,
        0.0,
        0.0,
        0.0,
        0.0,
        1.0
      ],
      "name": "Wheel"
    },
    {
      "mesh": 4,
      "name": "Wheel_wheels_0"
    }
  ],
  "samplers": [
    {
      "magFilter": 9729,
      "minFilter": 9987,
      "wrapS": 10497,
      "wrapT": 10497
    }
  ],
  "scene": 0,
  "scenes": [
    {
      "name": "Sketchfab_Scene",
      "nodes": [
        0
      ]
    }
  ],
  "textures": [
    {
      "sampler": 0,
      "source": 0
    },
    {
      "sampler": 0,
      "source": 1
    },
    {
      "sampler": 0,
      "source": 2
    },
    {
      "sampler": 0,
      "source": 3
    },
    {
      "sampler": 0,
      "source": 4
    },
    {
      "sampler": 0,
      "source": 5
    },
    {
      "sampler": 0,
      "source": 6
    },
    {
      "sampler": 0,
      "source": 7
    },
    {
      "sampler": 0,
      "source": 8
    },
    {
      "sampler": 0,
      "source": 9
    },
    {
      "sampler": 0,
      "source": 10
    },
    {
      "sampler": 0,
      "source": 11
    },
    {
      "sampler": 0,
      "source": 12
    },
    {
      "sampler": 0,
      "source": 13
    },
    {
      "sampler": 0,
      "source": 14
    },
    {
      "sampler": 0,
      "source": 15
    },
    {
      "sampler": 0,
      "source": 16
    },
    {
      "sampler": 0,
      "source": 17
    },
    {
      "sampler": 0,
      "source": 18
    }
  ]
}
